# xmcd
#
# Track frame offsets:
#	150
#	3822
#	24127
#	43552
#	61860
#	81072
#	105595
#	128652
#	140075
#	155390
#	175607
#	195135
#	220107
#	244855
#	267355
#
# Disc length: 3786 seconds
#
# Revision: 0
# Processed by: cddbd v1.5.1PL2 Copyright (c) Steve Scherf et al.
# Submitted via: dBpowerAMP V4.0
#
DISCID=b10ec80f
DTITLE=The Watchman - Live Anderson Fair Houston TX
DYEAR=1999
DGENRE=Blues
TTITLE0=Introduction
TTITLE1=Janet and Jill
TTITLE2=New York, New York
TTITLE3=Moon Over The Wing
TTITLE4=Letter To Your Wedding
TTITLE5=Peaceful Day
TTITLE6=Storm, Storm
TTITLE7=Yes Or No
TTITLE8=Set In Flames
TTITLE9=Brilliant People
TTITLE10=Maureen, Maureen
TTITLE11=Laundry Days
TTITLE12=Help Me
TTITLE13=24 Hours
TTITLE14=Louisiana Blues
EXTD=
EXTT0=
EXTT1=
EXTT2=
EXTT3=
EXTT4=
EXTT5=
EXTT6=
EXTT7=
EXTT8=
EXTT9=
EXTT10=
EXTT11=
EXTT12=
EXTT13=
EXTT14=
PLAYORDER=
